# xmcd
#
# Track frame offsets:
# 150
# 20345
# 38883
# 48865
# 70163
# 88732
# 108263
# 119758
# 142209
# 162769
# 189071
# 213597
# 232315
# 249489
# 271311
# 298043
#
# Disc length: 4103 seconds
#
#
# Revision: 1
# Processed by: cddbd v1.5.1PL0 Copyright (c) Steve Scherf et al.
# Submitted via: FreeRIP 2.941 
#
DISCID=ed100510
DTITLE=Nate Dogg - Ghetto Preacher
DYEAR=1999
DGENRE=Hip-Hop
TTITLE0=Nobody Does It Better feat. Warren G
TTITLE1=Hardest Man in Town
TTITLE2=Intro to G-Funk (Comm. 1)
TTITLE3=G-Funk
TTITLE4=First We Pray feat. Kurupt the Kingpin
TTITLE5=My World
TTITLE6=Crazy, Dangerous
TTITLE7=These Days feat. Daz Dillinger
TTITLE8=Bag O'Weed feat. Tray Deee
TTITLE9=Dirty Hoe's Draws feat. Big Chuck
TTITLE10=Scared of Love feat. Danny Butch Means
TTITLE11=Me and My Homies feat. Tupac Shakur
TTITLE12=Because I Got A Girl
TTITLE13=My Money
TTITLE14=Never Leave Me Alone feat. Snoop Doggy Dogg
TTITLE15=Last Prayer (Comm. 2)
EXTD=
EXTT0=
EXTT1=
EXTT2=
EXTT3=
EXTT4=
EXTT5=
EXTT6=
EXTT7=
EXTT8=
EXTT9=
EXTT10=
EXTT11=
EXTT12=
EXTT13=
EXTT14=
EXTT15=
PLAYORDER=
